<svg width="31" height="39" viewBox="0 0 31 39" fill="none" xmlns="http://www.w3.org/2000/svg">
    <rect x="8.19101" y="34.6572" width="14.7472" height="4.34286" rx="2" fill="#A7ACAC"/>
    <path d="M11.8778 1H19.2514M25.3961 29.2286L25.1503 28.2729M5.73314 29.2286L5.97893 28.2729M7.69944 21.5833H6.96208C5.60464 21.5833 4.50421 20.5301 4.50421 19.231L4.50421 4.52857C4.50421 3.22939 5.60464 2.17619 6.96208 2.17619H24.1671C25.5246 2.17619 26.625 3.22939 26.625 4.52857V19.231C26.625 20.5301 25.5246 21.5833 24.1671 21.5833H23.4298M7.69944 21.5833H23.4298M7.69944 21.5833L6.96208 24.4503M23.4298 21.5833L24.1671 24.4503M5.97893 28.2729H25.1503M5.97893 28.2729L6.96208 24.4503M6.96208 24.4503H24.1671M24.1671 24.4503L25.1503 28.2729M9.41994 17.4667H9.43223M21.697 17.4667H21.7093M10.6489 13.9381H20.4803C21.8378 13.9381 22.9382 12.8849 22.9382 11.5857V8.05714C22.9382 6.75796 21.8378 5.70476 20.4803 5.70476H10.6489C9.29143 5.70476 8.19101 6.75796 8.19101 8.05714V11.5857C8.19101 12.8849 9.29143 13.9381 10.6489 13.9381Z" stroke="#A7ACAC" stroke-width="2" stroke-linecap="round" stroke-linejoin="round"/>
</svg>
