<svg width="5680" height="6435" viewBox="0 0 5680 6435" fill="none" xmlns="http://www.w3.org/2000/svg">
    <path fill-rule="evenodd" clip-rule="evenodd" d="M2840 359.5C1635.47 359.5 659 1325.22 659 2516.5C659 3034.37 843.362 3509.43 1151.01 3881.32C1489.54 3307.14 2119 2920.94 2840 2920.94C3561 2920.94 4190.46 3307.14 4528.99 3881.32C4836.64 3509.43 5021 3034.37 5021 2516.5C5021 1325.22 4044.53 359.5 2840 359.5ZM4263.37 4150.88C4002.37 3634.56 3462.81 3280.44 2840 3280.44C2217.19 3280.44 1677.63 3634.56 1416.63 4150.88C1798.75 4476.71 2295.98 4673.5 2840 4673.5C3384.02 4673.5 3881.25 4476.71 4263.37 4150.88ZM295.5 2516.5C295.5 1126.68 1434.71 0 2840 0C4245.29 0 5384.5 1126.68 5384.5 2516.5C5384.5 3226.22 5087.19 3867.57 4609.52 4324.85C4151.77 4763.05 3527.57 5033 2840 5033C2152.43 5033 1528.23 4763.05 1070.48 4324.85C592.806 3867.57 295.5 3226.22 295.5 2516.5ZM2840 1138.42C2505.41 1138.42 2234.17 1406.67 2234.17 1737.58C2234.17 2068.49 2505.41 2336.75 2840 2336.75C3174.59 2336.75 3445.83 2068.49 3445.83 1737.58C3445.83 1406.67 3174.59 1138.42 2840 1138.42ZM1870.67 1737.58C1870.67 1208.13 2304.65 778.917 2840 778.917C3375.35 778.917 3809.33 1208.13 3809.33 1737.58C3809.33 2267.04 3375.35 2696.25 2840 2696.25C2304.65 2696.25 1870.67 2267.04 1870.67 1737.58Z" fill="#A7ACAC"/>
    <path d="M1668 6050C1668 5837.37 1842.91 5665 2058.67 5665H3621.33C3837.09 5665 4012 5837.37 4012 6050C4012 6262.63 3837.09 6435 3621.33 6435H2058.67C1842.91 6435 1668 6262.63 1668 6050Z" fill="#A7ACAC"/>
</svg>
