<svg width="151" height="170" viewBox="0 0 151 170" fill="none" xmlns="http://www.w3.org/2000/svg">
    <g clip-path="url(#clip0_331_1349)">
        <path d="M75.5 25.6665C47.7537 25.6665 25.1666 48.7023 25.1666 76.9998C25.1666 105.297 47.7537 128.333 75.5 128.333C103.246 128.333 125.833 105.297 125.833 76.9998C125.833 48.7023 103.246 25.6665 75.5 25.6665ZM75.5 118.708C70.2779 118.708 66.0625 114.409 66.0625 109.083H84.9375C84.9375 114.409 80.722 118.708 75.5 118.708ZM106.958 102.667H44.0416V89.8332H50.3333V73.0857C50.3333 59.4823 56.8137 47.9323 69.2083 44.9165V41.7082C69.2083 38.0507 71.9137 35.2915 75.5 35.2915C79.0862 35.2915 81.7916 38.0507 81.7916 41.7082V44.9165C94.1862 47.9323 100.667 59.5465 100.667 73.0857V89.8332H106.958V102.667Z" fill="url(#paint0_linear_331_1349)"/>
        <path d="M75.5 118.708C80.7221 118.708 84.9375 114.409 84.9375 109.083H66.0625C66.0625 114.409 70.2779 118.708 75.5 118.708ZM75.5 12.8333C40.77 12.8333 12.5833 41.5799 12.5833 76.9999C12.5833 112.42 40.77 141.167 75.5 141.167C110.23 141.167 138.417 112.42 138.417 76.9999C138.417 41.5799 110.23 12.8333 75.5 12.8333ZM75.5 128.333C47.7537 128.333 25.1666 105.297 25.1666 76.9999C25.1666 48.7024 47.7537 25.6666 75.5 25.6666C103.246 25.6666 125.833 48.7024 125.833 76.9999C125.833 105.297 103.246 128.333 75.5 128.333ZM100.667 73.0858C100.667 59.5466 94.1862 47.9324 81.7916 44.9166V41.7083C81.7916 38.0508 79.0862 35.2916 75.5 35.2916C71.9137 35.2916 69.2083 38.0508 69.2083 41.7083V44.9166C56.8137 47.9324 50.3333 59.4824 50.3333 73.0858V89.8333H44.0416V102.667H106.958V89.8333H100.667V73.0858ZM88.0833 89.8333H62.9166V70.5833C62.9166 63.5249 68.5791 57.7499 75.5 57.7499C82.4208 57.7499 88.0833 63.5249 88.0833 70.5833V89.8333Z" fill="#C7C9D9"/>
    </g>
    <rect x="51" y="158" width="50" height="12" rx="2" fill="#C7C9D9"/>
    <defs>
        <linearGradient id="paint0_linear_331_1349" x1="75.5" y1="25.6665" x2="75.5" y2="128.333" gradientUnits="userSpaceOnUse">
            <stop stop-color="#C7C9D9" stop-opacity="0.22"/>
            <stop offset="1" stop-color="#C7C9D9" stop-opacity="0.22"/>
        </linearGradient>
        <clipPath id="clip0_331_1349">
            <rect width="151" height="154" fill="white"/>
        </clipPath>
    </defs>
</svg>
