<svg width="7087" height="7463" viewBox="0 0 7087 7463" fill="none" xmlns="http://www.w3.org/2000/svg">
    <path d="M3543.5 1198.5C2309.44 1198.5 1304.83 2162.42 1304.83 3346.5C1304.83 4530.58 2309.44 5494.5 3543.5 5494.5C4777.56 5494.5 5782.17 4530.58 5782.17 3346.5C5782.17 2162.42 4777.56 1198.5 3543.5 1198.5ZM3543.5 5091.75C3311.24 5091.75 3123.75 4911.85 3123.75 4689H3963.25C3963.25 4911.85 3775.76 5091.75 3543.5 5091.75ZM4942.67 4420.5H2144.33V3883.5H2424.17V3182.72C2424.17 2613.5 2712.4 2130.19 3263.67 2004V1869.75C3263.67 1716.71 3384 1601.25 3543.5 1601.25C3703 1601.25 3823.33 1716.71 3823.33 1869.75V2004C4374.6 2130.19 4662.83 2616.18 4662.83 3182.72V3883.5H4942.67V4420.5Z" fill="url(#paint0_linear_239_1552)"/>
    <path d="M3543.5 5091.75C3775.76 5091.75 3963.25 4911.85 3963.25 4689H3123.75C3123.75 4911.85 3311.24 5091.75 3543.5 5091.75ZM3543.5 661.5C1998.82 661.5 745.167 1864.38 745.167 3346.5C745.167 4828.62 1998.82 6031.5 3543.5 6031.5C5088.18 6031.5 6341.83 4828.62 6341.83 3346.5C6341.83 1864.38 5088.18 661.5 3543.5 661.5ZM3543.5 5494.5C2309.44 5494.5 1304.83 4530.58 1304.83 3346.5C1304.83 2162.42 2309.44 1198.5 3543.5 1198.5C4777.57 1198.5 5782.17 2162.42 5782.17 3346.5C5782.17 4530.58 4777.57 5494.5 3543.5 5494.5ZM4662.83 3182.72C4662.83 2616.18 4374.61 2130.19 3823.33 2004V1869.75C3823.33 1716.71 3703.01 1601.25 3543.5 1601.25C3384 1601.25 3263.67 1716.71 3263.67 1869.75V2004C2712.4 2130.19 2424.17 2613.5 2424.17 3182.72V3883.5H2144.33V4420.5H4942.67V3883.5H4662.83V3182.72ZM4103.17 3883.5H2983.83V3078C2983.83 2782.65 3235.68 2541 3543.5 2541C3851.32 2541 4103.17 2782.65 4103.17 3078V3883.5Z" fill="#A7ACAC"/>
    <path d="M2372 7078C2372 6865.37 2546.91 6693 2762.67 6693H4325.33C4541.09 6693 4716 6865.37 4716 7078C4716 7290.63 4541.09 7463 4325.33 7463H2762.67C2546.91 7463 2372 7290.63 2372 7078Z" fill="#A7ACAC"/>
    <defs>
        <linearGradient id="paint0_linear_239_1552" x1="3543.5" y1="1198.5" x2="3543.5" y2="5494.5" gradientUnits="userSpaceOnUse">
            <stop stop-color="#C7C9D9" stop-opacity="0.22"/>
            <stop offset="1" stop-color="#C7C9D9" stop-opacity="0.22"/>
        </linearGradient>
    </defs>
</svg>
