<svg width="30" height="36" viewBox="0 0 30 36" fill="none" xmlns="http://www.w3.org/2000/svg">
    <path d="M18.75 6.25H6.25V23.75H23.75V11.25H18.75V6.25ZM8.75 8.75H15V11.25H8.75V8.75ZM21.25 21.25H8.75V18.75H21.25V21.25ZM21.25 13.75V16.25H8.75V13.75H21.25Z" fill="url(#paint0_linear_231_1436)"/>
    <path d="M8.75 16.25H21.25V13.75H8.75V16.25ZM8.75 21.25H21.25V18.75H8.75V21.25ZM20 3.75H6.25C4.875 3.75 3.75 4.875 3.75 6.25V23.75C3.75 25.125 4.875 26.25 6.25 26.25H23.75C25.125 26.25 26.25 25.125 26.25 23.75V10L20 3.75ZM23.75 23.75H6.25V6.25H18.75V11.25H23.75V23.75ZM15 8.75H8.75V11.25H15V8.75Z" fill="#A7ACAC"/>
    <path d="M9 34C9 32.8954 9.89543 32 11 32H19C20.1046 32 21 32.8954 21 34C21 35.1046 20.1046 36 19 36H11C9.89543 36 9 35.1046 9 34Z" fill="#A7ACAC"/>
    <defs>
        <linearGradient id="paint0_linear_231_1436" x1="15" y1="6.25" x2="15" y2="23.75" gradientUnits="userSpaceOnUse">
            <stop stop-color="#A7ACAC" stop-opacity="0.24"/>
            <stop offset="1" stop-color="#C7C9D9" stop-opacity="0.22"/>
        </linearGradient>
    </defs>
</svg>
