<svg width="29" height="36" viewBox="0 0 29 36" fill="none" xmlns="http://www.w3.org/2000/svg">
    <rect x="7.1882" y="32" width="12.6404" height="4" rx="2" fill="#A7ACAC"/>
    <path d="M7.60938 11.0716L8.875 12.3572M3.95312 7.35767L5.35938 8.78612M11.125 14.6428L12.5312 16.0712M15.625 18.071H17.3125M3.79571 1.63962L9.45429 3.0766C9.81258 3.16758 10.1874 3.16758 10.5457 3.0766L18.4543 1.06824C18.8126 0.977253 19.1874 0.977253 19.5457 1.06824L26.2957 2.78238C27.2973 3.03674 28 3.9509 28 4.99965V23.1431C28 24.63 26.6244 25.721 25.2043 25.3604L19.5457 23.9234C19.1874 23.8324 18.8126 23.8324 18.4543 23.9234L10.5457 25.9318C10.1874 26.0227 9.81258 26.0227 9.45429 25.9318L2.70429 24.2176C1.70267 23.9633 1 23.0491 1 22.0003V3.8569C1 2.37 2.37563 1.27899 3.79571 1.63962ZM24.625 9.07802C24.625 11.5126 21.8125 14.6428 21.8125 14.6428C21.8125 14.6428 19 11.5126 19 9.07802C19 7.92553 20.2054 6.64345 21.8125 6.64345C23.4196 6.64345 24.625 7.92553 24.625 9.07802Z" stroke="#A7ACAC" stroke-width="2" stroke-linecap="round" stroke-linejoin="round"/>
</svg>
